:FULLY-SPECIFIED
:FORCE-ALL-JOINTS-BE-3DOF
:DEGREES
2141
root -2.41579 15.308 0.198357 900.966 4.14582 185.621
lfemur -53.3144 14.8364 -23.9204
ltibia 45.3961 0 0
lfoot 2.49526 18.4225 0
ltoes -23.4976 0 0
rfemur -10.8655 -3.05962 26.8231
rtibia 54.8567 0 0
rfoot -23.179 -3.87359 0
rtoes -25.0803 0 0
lowerback 12.33 0.716506 -1.9059
upperback -1.85278 1.01381 3.50814
thorax -8.90808 0.690121 4.66695
lowerneck -6.02897 -1.36846 -5.95063
upperneck 9.96653 -1.74477 4.47817
head 4.28069 -0.854331 2.40279
lclavicle 8.66192e-15 2.32166e-14 0
lhumerus 61.9465 -7.28545 102.639
lradius 11.304 0 0
lwrist -58.4817 0 0
lhand -40.2407 317.814 0
lfingers 7.12502 0 0
lthumb -13.1994 -413.499 0
rclavicle 8.66192e-15 2.32166e-14 0
rhumerus -42.6625 35.1579 -95.9557
rradius 130.416 0 0
rwrist -66.3252 0 0
rhand 0.877311 -383.532 0
rfingers 7.12502 0 0
rthumb 26.3665 308.871 0
2142
root -2.39947 15.3182 -0.0764144 900.644 3.55961 185.376
lfemur -52.3302 14.5352 -24.0567
ltibia 45.9554 0 0
lfoot 1.62736 18.6653 0
ltoes -23.7074 0 0
rfemur -12.4004 -3.13176 26.4009
rtibia 55.6162 0 0
rfoot -22.2572 -3.78484 0
rtoes -24.1042 0 0
lowerback 12.4314 0.660036 -2.16777
upperback -1.7665 0.881777 3.46022
thorax -8.85506 0.630252 4.79246
lowerneck -6.06496 -1.42977 -5.91685
upperneck 10.1295 -1.84158 4.44469
head 4.32726 -0.906348 2.37233
lclavicle 9.40535e-15 2.20007e-14 0
lhumerus 61.7974 -8.3289 101.821
lradius 12.1912 0 0
lwrist -56.8788 0 0
lhand -40.0555 321.554 0
lfingers 7.12502 0 0
lthumb -13.0206 -407.35 0
rclavicle 9.40535e-15 2.20007e-14 0
rhumerus -42.3646 34.611 -95.4853
rradius 131.14 0 0
rwrist -66.6768 0 0
rhand 1.75143 -383.54 0
rfingers 7.12502 0 0
rthumb 27.1989 309.025 0
2143
root -2.38277 15.3285 -0.351954 900.317 2.949 185.12
lfemur -51.2924 14.2162 -24.1908
ltibia 46.5401 0 0
lfoot 0.73936 18.9086 0
ltoes -23.9243 0 0
rfemur -13.9965 -3.20613 25.9642
rtibia 56.4007 0 0
rfoot -21.3082 -3.69524 0
rtoes -23.0891 0 0
lowerback 12.5352 0.603075 -2.43762
upperback -1.6779 0.747253 3.40918
thorax -8.80055 0.56929 4.91967
lowerneck -6.09881 -1.49674 -5.8843
upperneck 10.2915 -1.94645 4.41285
head 4.37352 -0.962488 2.34216
lclavicle 1.01251e-14 2.07388e-14 0
lhumerus 61.5655 -9.40473 100.986
lradius 13.1538 0 0
lwrist -55.176 0 0
lhand -39.8453 325.241 0
lfingers 7.12502 0 0
lthumb -12.8177 -401.188 0
rclavicle 1.01251e-14 2.07388e-14 0
rhumerus -42.0042 34.0335 -94.9794
rradius 131.82 0 0
rwrist -66.9928 0 0
rhand 2.6399 -383.559 0
rfingers 7.12502 0 0
rthumb 28.0448 309.172 0
2144
root -2.3657 15.3387 -0.628078 899.986 2.31618 184.854
lfemur -50.2055 13.8808 -24.3222
ltibia 47.1473 0 0
lfoot -0.166259 19.1522 0
ltoes -24.1478 0 0
rfemur -15.6473 -3.28287 25.5142
rtibia 57.2068 0 0
rfoot -20.3353 -3.60453 0
rtoes -22.0393 0 0
lowerback 12.6409 0.545822 -2.71461
upperback -1.58732 0.610697 3.35522
thorax -8.7448 0.507451 5.04823
lowerneck -6.13036 -1.56912 -5.8532
upperneck 10.4521 -2.059 4.38279
head 4.41936 -1.02255 2.31236
lclavicle 1.08215e-14 1.94368e-14 0
lhumerus 61.2534 -10.5085 100.137
lradius 14.1871 0 0
lwrist -53.3809 0 0
lhand -39.6116 328.873 0
lfingers 7.12502 0 0
lthumb -12.5922 -395.028 0
rclavicle 1.08215e-14 1.94368e-14 0
rhumerus -41.584 33.4277 -94.4407
rradius 132.455 0 0
rwrist -67.272 0 0
rhand 3.53911 -383.588 0
rfingers 7.12502 0 0
rthumb 28.901 309.309 0
2145
root -2.34827 15.3488 -0.904605 899.652 1.66335 184.578
lfemur -49.074 13.5309 -24.4505
ltibia 47.7738 0 0
lfoot -1.087 19.3961 0
ltoes -24.3772 0 0
rfemur -17.3464 -3.36212 25.0524
rtibia 58.0313 0 0
rfoot -19.342 -3.51247 0
rtoes -20.9592 0 0
lowerback 12.7483 0.488474 -2.99788
upperback -1.49513 0.47257 3.29855
thorax -8.68804 0.444952 5.17777
lowerneck -6.15945 -1.64667 -5.82374
upperneck 10.611 -2.17886 4.35462
head 4.46467 -1.08634 2.28307
lclavicle 1.14951e-14 1.81003e-14 0
lhumerus 60.8638 -11.6356 99.2767
lradius 15.2861 0 0
lwrist -51.501 0 0
lhand -39.3558 332.45 0
lfingers 7.12502 0 0
lthumb -12.3453 -388.886 0
rclavicle 1.14951e-14 1.81003e-14 0
rhumerus -41.1065 32.7958 -93.8719
rradius 133.042 0 0
rwrist -67.5131 0 0
rhand 4.44542 -383.627 0
rfingers 7.12502 0 0
rthumb 29.764 309.439 0
2146
root -2.33049 15.3588 -1.18135 899.317 0.992691 184.295
lfemur -47.9023 13.168 -24.5753
ltibia 48.4166 0 0
lfoot -2.02038 19.6402 0
ltoes -24.6119 0 0
rfemur -19.0873 -3.44405 24.5803
rtibia 58.8709 0 0
rfoot -18.3315 -3.41884 0
rtoes -19.8532 0 0
lowerback 12.8568 0.431232 -3.28659
upperback -1.40168 0.33333 3.23939
thorax -8.6305 0.38201 5.30796
lowerneck -6.18593 -1.72914 -5.79615
upperneck 10.7676 -2.30564 4.3285
head 4.50936 -1.15365 2.2544
lclavicle 1.2146e-14 1.67353e-14 0
lhumerus 60.3993 -12.7817 98.4087
lradius 16.4458 0 0
lwrist -49.5439 0 0
lhand -39.0792 335.973 0
lfingers 7.12502 0 0
lthumb -12.0784 -382.778 0
rclavicle 1.2146e-14 1.67353e-14 0
rhumerus -40.5744 32.14 -93.2757
rradius 133.581 0 0
rwrist -67.715 0 0
rhand 5.35521 -383.676 0
rfingers 7.12502 0 0
rthumb 30.6302 309.559 0
2147
root -2.31237 15.3686 -1.45814 898.981 0.306394 184.004
lfemur -46.6948 12.7938 -24.6959
ltibia 49.0726 0 0
lfoot -2.9639 19.8846 0
ltoes -24.8514 0 0
rfemur -20.8635 -3.52881 24.0993
rtibia 59.7222 0 0
rfoot -17.3073 -3.32337 0
rtoes -18.7257 0 0
lowerback 12.9662 0.374293 -3.57989
upperback -1.30733 0.193437 3.17795
thorax -8.57243 0.318841 5.43841
lowerneck -6.20966 -1.81626 -5.77061
upperneck 10.9216 -2.43897 4.30455
head 4.55331 -1.22428 2.22645
lclavicle 1.27749e-14 1.53474e-14 0
lhumerus 59.8624 -13.9423 97.536
lradius 17.6615 0 0
lwrist -47.5171 0 0
lhand -38.7832 339.439 0
lfingers 7.12502 0 0
lthumb -11.7928 -376.721 0
rclavicle 1.27749e-14 1.53474e-14 0
rhumerus -39.9903 31.4624 -92.6548
rradius 134.069 0 0
rwrist -67.8764 0 0
rhand 6.26487 -383.736 0
rfingers 7.12502 0 0
rthumb 31.4963 309.669 0
